name C:\Users\u0101727\Documents\MyRepositories\upper-imu-dc\Results\main_tracking\Case_45\kinematics.mot
datacolumns 10
datarows 33
range 0.50000000 0.69200000
endheader 
time	clav_prot	clav_elev	scapula_abduction	scapula_elevation	scapula_upward_rot	scapula_winging	plane_elv	shoulder_elv	axial_rot	
          0.50000000	        -23.86273213	         -6.29387579	        -14.93724218	         -4.84684722	         10.30222354	          6.74763651	        -30.16506403	         13.37023417	         45.90261712	
          0.50600000	        -23.31205183	         -6.25988435	        -14.80827321	         -4.87091664	         10.31933987	          6.75274635	        -29.74454882	         13.39845461	         45.56449601	
          0.51200000	        -23.31262165	         -6.28474884	        -14.79429807	         -4.89480580	         10.33621765	          6.75788052	        -29.32402947	         13.42696606	         45.22640129	
          0.51800000	        -23.31284481	         -6.30962122	        -14.77983844	         -4.91862528	         10.35290056	          6.76308232	        -28.90315627	         13.45551927	         44.88829472	
          0.52400000	        -23.31248847	         -6.33455923	        -14.76454204	         -4.94237548	         10.36927751	          6.76839364	        -28.48159755	         13.48400928	         44.55015429	
          0.53000000	        -23.31163652	         -6.35956199	        -14.74861667	         -4.96603007	         10.38523397	          6.77384344	        -28.05898786	         13.51239151	         44.21197108	
          0.53600000	        -23.31046932	         -6.38460819	        -14.73242309	         -4.98956155	         10.40068750	          6.77944783	        -27.63490971	         13.54064877	         43.87373592	
          0.54200000	        -23.30917187	         -6.40967252	        -14.71630970	         -5.01295005	         10.41559421	          6.78521229	        -27.20889698	         13.56877901	         43.53543179	
          0.54800000	        -23.30791642	         -6.43473078	        -14.70058259	         -5.03618560	         10.42994654	          6.79113374	        -26.78043828	         13.59679188	         43.19702016	
          0.55400000	        -23.30685681	         -6.45976330	        -14.68549757	         -5.05926919	         10.44376879	          6.79720269	        -26.34898016	         13.62471000	         42.85842524	
          0.56000000	        -23.30612759	         -6.48475543	        -14.67126069	         -5.08221202	         10.45711313	          6.80340448	        -25.91392926	         13.65257076	         42.51951595	
          0.56600000	        -23.30584385	         -6.50969833	        -14.65803023	         -5.10503490	         10.47005514	          6.80972059	        -25.47465351	         13.68042954	         42.18008663	
          0.57200000	        -23.30610150	         -6.53458912	        -14.64591941	         -5.12776722	         10.48268979	          6.81612973	        -25.03048322	         13.70836291	         41.83983786	
          0.57800000	        -23.30697780	         -6.55943042	        -14.63499948	         -5.15044567	         10.49512754	          6.82260855	        -24.58071209	         13.73647145	         41.49835891	
          0.58400000	        -23.30853185	         -6.58422995	        -14.62530271	         -5.17311291	         10.50749076	          6.82913245	        -24.12459903	         13.76488231	         41.15511269	
          0.59000000	        -23.31080599	         -6.60899955	        -14.61682683	         -5.19581603	         10.51991029	          6.83567603	        -23.66137073	         13.79375114	         40.80942435	
          0.59600000	        -23.31382651	         -6.63375425	        -14.60953818	         -5.21860502	         10.53252254	          6.84221346	        -23.19022538	         13.82326312	         40.46047456	
          0.60200000	        -23.31760597	         -6.65851091	        -14.60337739	         -5.24153118	         10.54546684	          6.84871865	        -22.71033782	         13.85363331	         40.10729762	
          0.60800000	        -23.32214660	         -6.68328666	        -14.59826668	         -5.26464561	         10.55888346	          6.85516525	        -22.22086591	         13.88510573	         39.74878700	
          0.61400000	        -23.32744341	         -6.70809736	        -14.59411624	         -5.28799779	         10.57291235	          6.86152639	        -21.72095886	         13.91795146	         39.38370678	
          0.62000000	        -23.33348775	         -6.73295591	        -14.59083107	         -5.31163442	         10.58769255	          6.86777433	        -21.20976658	         13.95246562	         39.01070953	
          0.62600000	        -23.34026987	         -6.75787080	        -14.58831561	         -5.33559838	         10.60336225	          6.87387988	        -20.68645034	         13.98896349	         38.62836033	
          0.63200000	        -23.34778028	         -6.78284482	        -14.58647620	         -5.35992798	         10.62005915	          6.87981186	        -20.15019414	         14.02777578	         38.23516506	
          0.63800000	        -23.35600972	         -6.80787414	        -14.58522088	         -5.38465627	         10.63792093	          6.88553660	        -19.60021592	         14.06924351	         37.82960239	
          0.64400000	        -23.36494785	         -6.83294775	        -14.58445713	         -5.40981072	         10.65708556	          6.89101762	        -19.03577848	         14.11371274	         37.41015658	
          0.65000000	        -23.37458073	         -6.85804737	        -14.58408760	         -5.43541282	         10.67769110	          6.89621547	        -18.45619935	         14.16152949	         36.97534937	
          0.65600000	        -23.38488983	         -6.88314762	        -14.58400872	         -5.46147804	         10.69987504	          6.90108798	        -17.86085939	         14.21303514	         36.52376946	
          0.66200000	        -23.39584883	         -6.90821670	        -14.58410561	         -5.48801584	         10.72377321	          6.90559061	        -17.24921014	         14.26856217	         36.05409941	
          0.66800000	        -23.40742243	         -6.93321735	        -14.58425081	         -5.51502984	         10.74951810	          6.90967718	        -16.62077948	         14.32843070	         35.56513828	
          0.67400000	        -23.41956615	         -6.95810787	        -14.58430458	         -5.54251818	         10.77723699	          6.91330071	        -15.97517605	         14.39294548	         35.05582179	
          0.68000000	        -23.43222553	         -6.98284352	        -14.58411450	         -5.57047391	         10.80704994	          6.91641438	        -15.31209280	         14.46239319	         34.52524015	
          0.68600000	        -23.44533749	         -7.00737774	        -14.58351851	         -5.59888558	         10.83906780	          6.91897254	        -14.63130946	         14.53704034	         33.97265390	
          0.69200000	        -23.45883138	         -7.03166359	        -14.58234742	         -5.62773785	         10.87339034	          6.92093168	        -13.93269420	         14.61713114	         33.39750839	
